<?xml version="1.0" encoding="utf-8"?>
<!-- Generator: Adobe Illustrator 18.1.0, SVG Export Plug-In . SVG Version: 6.00 Build 0)  -->
<!DOCTYPE svg PUBLIC "-//W3C//DTD SVG 1.1//EN" "http://www.w3.org/Graphics/SVG/1.1/DTD/svg11.dtd">
<svg version="1.1" id="Layer_1" xmlns="http://www.w3.org/2000/svg" xmlns:xlink="http://www.w3.org/1999/xlink" x="0px" y="0px"
	 width="48.4px" height="48.4px" viewBox="0.3 92.6 48.4 48.4" enable-background="new 0.3 92.6 48.4 48.4" xml:space="preserve">
<g id="twitter_1_" enable-background="new    ">
	<g id="twitter">
		<g>
			<path fill="#FFFFFF" d="M-114.4,100.2L-114.4,100.2c0.6-0.2,0.9-0.7,1.3-1c1.9-1.4,3.1-3.4,4-5.8c-0.5,0.3-1,0.6-1.5,0.8
				c-1.6,0.8-4.2,2-6.3,2.2c-2.4-2.2-5-3.9-9.7-3.8c-0.5,0.1-1,0.1-1.5,0.2c-0.9,0.2-1.9,0.5-2.7,0.8c-3.5,1.5-5.9,4.3-6.9,8.2
				c-0.5,1.6-0.7,4.1-0.1,5.8c-2,0-3.8-0.3-5.5-0.7c-6.5-1.6-10.6-3.7-15-7.3c-1.3-1-2.6-2.2-3.7-3.5c-0.4-0.4-0.8-0.7-1.1-1.3
				c0,0,0,0-0.1,0c-0.6,0.9-1,2-1.3,3.2c-1.2,4.7,0.7,8.6,2.7,11.1c0.7,0.7,1.6,1.2,2.2,2h0.1c-0.5,0.2-1.3-0.1-1.7-0.2
				c-0.9-0.2-1.8-0.4-2.6-0.7c-0.4-0.2-0.8-0.4-1.2-0.6c0,5.1,2.6,8.5,5.8,10.5c1,0.7,2.5,1.5,4,1.6c-0.8,0.7-4.3,0.4-5.5,0.3
				c1.5,3.8,3.8,6.5,7.8,7.9c1,0.4,2.2,0.7,3.7,0.7c-0.7,0.8-2.3,1.6-3.4,2.2c-2.2,1.2-4.6,2.1-7.4,2.6c-1.1,0.3-2.3,0.2-3.5,0.4
				c-1.3,0.2-2.7-0.1-3.9-0.2c0.4,0.2,0.7,0.5,1.1,0.7c1.1,0.7,2.2,1.2,3.5,1.8c2.2,0.9,4.6,1.7,7.2,2.3c5.3,1.3,12.7,0.7,17.4-0.7
				c12.9-4,21-13.4,24.1-27.1c0.6-2.3,0.6-5.1,0.6-7.9c0.7-0.5,1.3-1,2-1.5c1.6-1.3,3.1-3,4.2-4.8l0,0
				C-109.6,99-111.8,100.1-114.4,100.2z"/>
		</g>
	</g>
</g>
<g id="youtube_1_" enable-background="new    ">
	<g id="youtube">
		<g>
			<path fill="#FFFFFF" d="M-39.5,96.2h-19.6h-20.4c-5.1,0-10.8,3.4-10.8,8.4v24.9c0,5,5.7,8.1,10.8,8.1h40c5.1,0,9.2-3,9.2-8.1
				v-24.8C-30.2,99.7-34.3,96.2-39.5,96.2z M-64.1,126.4l-0.1-19l13.1,9.6L-64.1,126.4z"/>
		</g>
	</g>
</g>
<g id="facebook_3_" enable-background="new    ">
	<g id="facebook">
		<g>
			<path fill="#FFFFFF" d="M44.9,92.6H4c-2.1,0-3.7,1.7-3.7,3.7v41.1c0,2.1,1.7,3.6,3.7,3.6h40.9c2.1,0,3.7-1.5,3.7-3.6V96.4
				C48.7,94.3,47,92.6,44.9,92.6z M25.7,108.7c-1.2-0.7-2.1-1.2-3.3-1.2c-1.2,0-2.1,0.3-2.6,0.8c-0.5,0.5-0.7,1.4-0.7,2.8v2h6.2
				l-1.3,5.7H19v18.8h-7.7v-18.8H7.7V113h3.6v-2.2c0-2.3,0.3-3.6,0.8-4.8c0.5-1.1,1.6-2.4,3-3.1c1.4-0.7,3.6-1.1,5.8-1.1
				c2.3,0,4,0.8,6.2,1.4L25.7,108.7z"/>
		</g>
	</g>
</g>
</svg>
